<svg width="16" height="16" viewBox="0 0 16 16" fill="none" xmlns="http://www.w3.org/2000/svg">
<path d="M8.00008 7.99999C7.26675 7.99999 6.63897 7.73888 6.11675 7.21666C5.59453 6.69443 5.33341 6.06666 5.33341 5.33332C5.33341 4.59999 5.59453 3.97221 6.11675 3.44999C6.63897 2.92777 7.26675 2.66666 8.00008 2.66666C8.73342 2.66666 9.36119 2.92777 9.88341 3.44999C10.4056 3.97221 10.6667 4.59999 10.6667 5.33332C10.6667 6.06666 10.4056 6.69443 9.88341 7.21666C9.36119 7.73888 8.73342 7.99999 8.00008 7.99999ZM2.66675 13.3333V11.4667C2.66675 11.0889 2.76397 10.7417 2.95841 10.425C3.15286 10.1083 3.41119 9.86666 3.73341 9.69999C4.4223 9.35555 5.1223 9.09721 5.83341 8.92499C6.54453 8.75277 7.26675 8.66666 8.00008 8.66666C8.73342 8.66666 9.45564 8.75277 10.1667 8.92499C10.8779 9.09721 11.5779 9.35555 12.2667 9.69999C12.589 9.86666 12.8473 10.1083 13.0417 10.425C13.2362 10.7417 13.3334 11.0889 13.3334 11.4667V13.3333H2.66675Z" fill="#F6F6F6"/>
</svg>
