<svg width="16" height="16" viewBox="0 0 16 16" fill="none" xmlns="http://www.w3.org/2000/svg">
<path d="M7.99998 14.1166L7.03331 13.25C5.91109 12.2389 4.98331 11.3666 4.24998 10.6333C3.51665 9.89997 2.93331 9.24163 2.49998 8.6583C2.06665 8.07497 1.76387 7.53886 1.59165 7.04997C1.41942 6.56108 1.33331 6.06108 1.33331 5.54997C1.33331 4.50552 1.68331 3.6333 2.38331 2.9333C3.08331 2.2333 3.95554 1.8833 4.99998 1.8833C5.57776 1.8833 6.12776 2.00552 6.64998 2.24997C7.1722 2.49441 7.6222 2.83886 7.99998 3.2833C8.37776 2.83886 8.82776 2.49441 9.34998 2.24997C9.8722 2.00552 10.4222 1.8833 11 1.8833C12.0444 1.8833 12.9166 2.2333 13.6166 2.9333C14.3166 3.6333 14.6666 4.50552 14.6666 5.54997C14.6666 6.06108 14.5805 6.56108 14.4083 7.04997C14.2361 7.53886 13.9333 8.07497 13.5 8.6583C13.0666 9.24163 12.4833 9.89997 11.75 10.6333C11.0166 11.3666 10.0889 12.2389 8.96665 13.25L7.99998 14.1166Z" fill="#FF584E"/>
</svg>
